:SAMPLES-PER-SECOND 30
:FULLY-SPECIFIED
:DEGREES
765
root  59.0814 37.1811 -3.99098 177.225 16.9472 173.133
RightUpLeg  -17.3323 9.12101 -24.5534
RightLeg  14.6216 14.4313 1.15721
RightFoot  -3.97046 -1.04246 15.799
RightToes  -2.9104e-010 0 -3.6325e-017
Spine  8.39924 2.15997 4.60155
Spine1  3.55589 4.98341 -11.3541
HEad  -12.161 21.9004 -20.8016
LeftShoulder1  -0.702321 5.32932 -32.3025
LeftArm  -11.0404 9.77267 -36.4688
LeftForeArm  34.0845 -44.1119 -8.51607
LeftHand  0.00139332 6.27217 3.9492
RightShoulder  -0.938629 -6.08591 29.7793
RightArm  17.7108 1.4791 46.4189
RightForeArm  12.2442 13.6358 6.43537
RightHand  -0.144705 4.27216 -2.01919
LeftUpLeg  -6.19428 -23.1711 0.8246
LeftLeg  26.7933 -7.65929 -3.84174
LeftFoot  -20.21 0.248605 1.63385
LeftToes  -3.37426e-010 -1.91496e-010 5.23909e-011
766
root  60.537 37.2051 -3.84894 177.718 12.8197 173.898
RightUpLeg  -18.4094 10.1469 -23.5787
RightLeg  20.396 7.53586 3.23782
RightFoot  -5.62057 -0.696578 13.1328
RightToes  -2.9104e-010 0 -3.6325e-017
Spine  10.15 1.83019 6.59314
Spine1  3.47557 5.04732 -12.2256
HEad  -11.6958 19.9924 -20.3623
LeftShoulder1  -0.625445 5.1482 -31.8934
LeftArm  -12.4283 9.81083 -35.5459
LeftForeArm  36.3144 -43.8496 -8.28146
LeftHand  -0.0431197 4.8145 4.19636
RightShoulder  -0.911885 -6.03144 29.4806
RightArm  19.8583 3.46815 47.7644
RightForeArm  11.3017 14.2705 6.60117
RightHand  -0.14987 3.85996 -2.14154
LeftUpLeg  -6.27442 -25.0845 4.17779
LeftLeg  25.3901 -9.07206 -4.33273
LeftFoot  -19.2419 0.0863553 -0.481373
LeftToes  -3.37426e-010 -1.91496e-010 5.23909e-011
767
root  62.0064 37.4036 -3.74673 179.38 7.91611 175.415
RightUpLeg  -18.1582 2.09579 -19.2511
RightLeg  22.5176 9.51425 4.09055
RightFoot  -6.03473 -0.524762 10.4233
RightToes  -2.9104e-010 0 -3.6325e-017
Spine  9.90257 1.64324 7.97449
Spine1  3.98653 4.65622 -10.5604
HEad  -10.2545 18.2044 -19.7667
LeftShoulder1  -0.655292 5.19243 -32.6536
LeftArm  -13.6791 9.84531 -35.2571
LeftForeArm  38.0569 -43.1609 -7.94481
LeftHand  -0.0379422 5.02357 4.94572
RightShoulder  -0.782269 -5.73301 28.4681
RightArm  22.08 4.37123 48.6279
RightForeArm  9.55425 15.9943 6.19868
RightHand  -0.159848 4.86894 -2.11005
LeftUpLeg  -8.29565 -24.4029 8.82252
LeftLeg  24.0686 -9.08511 -4.08717
LeftFoot  -16.1687 0.0127253 -2.03148
LeftToes  -3.37426e-010 -1.91496e-010 5.23909e-011
768
root  63.4668 37.716 -3.71834 -178.979 2.12878 176.69
RightUpLeg  -17.1942 -4.58028 -15.6254
RightLeg  22.5698 9.66408 4.17109
RightFoot  -6.25152 -0.42411 8.55544
RightToes  -2.9104e-010 0 -3.6325e-017
Spine  9.12752 1.45307 8.80356
Spine1  4.05251 4.0611 -8.66164
HEad  -7.48567 15.9572 -17.9267
LeftShoulder1  -0.700097 5.32304 -32.289
LeftArm  -15.0257 10.4639 -36.7763
LeftForeArm  38.7633 -42.4843 -7.68445
LeftHand  -0.029521 5.25082 4.31349
RightShoulder  -0.741358 -5.61806 28.3871
RightArm  25.6306 4.67875 47.7753
RightForeArm  6.0455 18.625 5.50835
RightHand  -0.146005 5.24349 -1.88861
LeftUpLeg  -10.6674 -21.2303 12.3231
LeftLeg  22.592 -4.62054 -1.80975
LeftFoot  -10.7562 0.0456156 -1.15355
LeftToes  -3.37426e-010 -1.91496e-010 5.23909e-011
769
root  64.8758 38.0612 -3.71254 -178.46 -2.34097 176.671
RightUpLeg  -15.935 -8.30791 -13.4592
RightLeg  22.049 8.7275 3.65893
RightFoot  -6.14681 -0.335896 6.52239
RightToes  -2.9104e-010 0 -3.6325e-017
Spine  8.95708 1.78809 8.33693
Spine1  4.36615 4.24737 -8.01957
HEad  -5.28585 13.0266 -16.0331
LeftShoulder1  -0.608739 5.13742 -31.116
LeftArm  -15.8857 11.7557 -38.9917
LeftForeArm  39.2493 -42.7972 -7.75364
LeftHand  -0.0226055 5.51483 3.37645
RightShoulder  -0.874257 -5.95564 29.0721
RightArm  29.1236 5.33188 46.1757
RightForeArm  3.69098 21.0485 5.00171
RightHand  -0.267867 5.56665 -3.1597
LeftUpLeg  -11.0512 -14.8544 12.2642
LeftLeg  21.2146 4.55476 2.29001
LeftFoot  -4.97013 -0.0212694 1.16827
LeftToes  -3.37426e-010 -1.91496e-010 5.23909e-011
770
root  66.1831 38.4372 -3.71168 -177.739 -6.39716 176.572
RightUpLeg  -14.7787 -11.0944 -11.4269
RightLeg  20.3563 7.20398 2.72914
RightFoot  -5.2831 -0.269076 4.39099
RightToes  -2.9104e-010 0 -3.6325e-017
Spine  8.89823 1.9722 7.51364
Spine1  4.07958 4.12163 -7.0383
HEad  -3.88823 10.7321 -15.2047
LeftShoulder1  -0.669309 5.26742 -31.8188
LeftArm  -14.6514 13.0467 -38.8069
LeftForeArm  38.8454 -43.5561 -8.02146
LeftHand  -0.0308921 5.12842 2.36423
RightShoulder  -0.818108 -5.84497 28.3332
RightArm  28.7701 4.9359 45.6541
RightForeArm  4.94465 22.9274 4.70707
RightHand  -0.264225 5.42273 -3.14844
LeftUpLeg  -11.4099 -6.47871 11.0533
LeftLeg  21.2668 10.5952 4.8493
LeftFoot  -4.04567 -0.0150298 0.608581
LeftToes  -3.37426e-010 -1.91496e-010 5.23909e-011
771
root  67.3207 38.7227 -3.74404 -177.422 -11.2113 176.328
RightUpLeg  -13.0836 -14.3977 -10.0384
RightLeg  18.6641 5.54079 2.02045
RightFoot  -4.93224 -0.204136 3.03566
RightToes  -2.9104e-010 0 -3.6325e-017
Spine  8.50605 1.73761 7.47775
Spine1  4.66144 3.86001 -6.83613
HEad  -3.26016 7.56614 -14.5331
LeftShoulder1  -0.605553 5.08159 -32.2171
LeftArm  -12.9976 13.7199 -38.8493
LeftForeArm  38.6917 -43.9706 -8.16629
LeftHand  -0.040665 4.52268 2.52076
RightShoulder  -0.811782 -5.84899 27.9916
RightArm  27.7496 4.74685 44.9194
RightForeArm  5.9822 23.8102 4.7744
RightHand  -0.260125 5.37485 -3.11615
LeftUpLeg  -11.6166 2.2579 8.63105
LeftLeg  22.7382 11.1056 5.38184
LeftFoot  -4.07724 -0.0303079 0.847626
LeftToes  -3.37426e-010 -1.91496e-010 5.23909e-011
772
root  68.366 38.8724 -3.78118 -176.947 -16.577 176.495
RightUpLeg  -11.9757 -16.4177 -8.66153
RightLeg  17.6277 2.04905 1.47205
RightFoot  -5.04778 -0.145292 2.01394
RightToes  -2.9104e-010 0 -3.6325e-017
Spine  7.90057 1.20638 7.71989
Spine1  4.81919 3.22703 -6.39635
HEad  -2.17331 5.26141 -13.3956
LeftShoulder1  -0.598483 5.12084 -30.8698
LeftArm  -12.0211 14.3679 -40.8248
LeftForeArm  39.4008 -43.515 -7.97399
LeftHand  -0.0357522 4.7761 1.671
RightShoulder  -0.922904 -6.10312 28.9327
RightArm  27.7411 4.61511 43.1009
RightForeArm  4.50719 24.335 4.97413
RightHand  -0.263402 5.96404 -3.01845
LeftUpLeg  -12.2656 8.20697 6.34029
LeftLeg  25.3963 9.35318 5.13097
LeftFoot  -5.19138 0.0388752 -0.132135
LeftToes  -3.37426e-010 -1.91496e-010 5.23909e-011
773
root  69.4439 38.9872 -3.8375 -176.432 -21.7017 176.792
RightUpLeg  -11.1514 -16.2699 -7.23764
RightLeg  16.416 -3.43985 1.02845
RightFoot  -5.11956 -0.088643 0.99936
RightToes  -2.9104e-010 0 -3.6325e-017
Spine  7.39729 1.238 7.42532
Spine1  4.629 2.957 -5.2135
HEad  -0.898293 2.36619 -12.6772
LeftShoulder1  -0.667472 5.32185 -30.5468
LeftArm  -10.3136 14.0245 -42.2151
LeftForeArm  40.7479 -42.8098 -7.66285
LeftHand  -0.0231361 4.89466 -0.735994
RightShoulder  -1.01131 -6.32464 29.3087
RightArm  26.2439 3.34 41.3113
RightForeArm  4.88302 24.7033 5.03509
RightHand  -0.222696 6.00946 -2.59563
LeftUpLeg  -12.3729 12.4781 4.2711
LeftLeg  27.7155 7.69961 4.70837
LeftFoot  -6.00397 0.0756454 -0.857823
LeftToes  -3.37426e-010 -1.91496e-010 5.23909e-011
774
root  70.3648 39.0837 -3.90225 -175.982 -26.7797 177.077
RightUpLeg  -10.3265 -15.9199 -6.25017
RightLeg  15.0531 -8.98955 1.20848
RightFoot  -4.93262 -0.0262709 -0.133427
RightToes  -2.9104e-010 0 -3.6325e-017
Spine  6.56628 1.21349 7.51449
Spine1  4.66936 2.71154 -4.43645
HEad  0.25862 -0.554563 -12.5415
LeftShoulder1  -0.737047 5.48915 -30.9623
LeftArm  -8.45708 13.8714 -43.0475
LeftForeArm  40.809 -42.713 -7.62991
LeftHand  -0.0249063 4.91239 -0.513107
RightShoulder  -1.00222 -6.31209 29.1315
RightArm  25.2627 1.64511 39.9792
RightForeArm  4.43212 24.1522 4.9389
RightHand  -0.245973 5.93308 -2.84903
LeftUpLeg  -11.3649 14.9651 2.20871
LeftLeg  28.7936 7.30701 4.66802
LeftFoot  -6.85305 0.118742 -1.98014
LeftToes  -3.37426e-010 -1.91496e-010 5.23909e-011
775
root  71.2822 39.0945 -3.95226 -175.804 -31.812 177.432
RightUpLeg  -9.9845 -15.0681 -5.03527
RightLeg  14.4973 -14.9281 0.998048
RightFoot  -5.09147 0.0198611 -0.995891
RightToes  -2.9104e-010 0 -3.6325e-017
Spine  6.28924 1.15462 7.40806
Spine1  4.35801 2.45201 -3.65182
HEad  1.12929 -3.45116 -12.4799
LeftShoulder1  -0.78276 5.59785 -31.2246
LeftArm  -6.48916 13.2448 -43.8895
LeftForeArm  40.5134 -42.1045 -7.45914
LeftHand  -0.0302542 5.32992 0.000344286
RightShoulder  -0.925001 -6.10543 28.9719
RightArm  24.9304 -0.0727271 39.0251
RightForeArm  4.01295 22.8861 4.74729
RightHand  -0.277 5.63804 -3.23093
LeftUpLeg  -9.73505 17.8491 0.779267
LeftLeg  29.6134 7.11493 4.69362
LeftFoot  -7.7472 0.124643 -2.4769
LeftToes  -3.37426e-010 -1.91496e-010 5.23909e-011
776
root  72.1426 39.0597 -3.95813 -175.888 -37.0116 177.969
RightUpLeg  -10.0651 -14.7908 -3.74332
RightLeg  14.6214 -20.3657 0.534995
RightFoot  -5.36941 0.0545644 -1.74501
RightToes  -2.9104e-010 0 -3.6325e-017
Spine  5.86273 1.11162 7.53458
Spine1  4.55999 2.26724 -3.05617
HEad  1.79927 -6.47813 -12.0082
LeftShoulder1  -0.704828 5.38497 -31.3057
LeftArm  -4.80197 12.6029 -44.874
LeftForeArm  38.9077 -41.5853 -7.39947
LeftHand  -0.0307844 5.35969 0.916064
RightShoulder  -1.03407 -6.36051 29.6591
RightArm  24.6582 -1.18837 37.6583
RightForeArm  4.33656 21.3825 4.7681
RightHand  -0.20988 5.54164 -2.54877
LeftUpLeg  -7.56985 20.9712 0.0511688
LeftLeg  29.8514 6.6549 4.45308
LeftFoot  -8.33393 0.107371 -2.15963
LeftToes  -3.37426e-010 -1.91496e-010 5.23909e-011
